<svg width="23" height="20" viewBox="0 0 23 20" fill="none" xmlns="http://www.w3.org/2000/svg">
<g clip-path="url(#clip0_1691_1526)">
<path fill-rule="evenodd" clip-rule="evenodd" d="M11.3724 16C11.3724 17.0609 11.7763 18.0783 12.4952 18.8284C13.214 19.5786 14.1891 20 15.2057 20C16.2224 20 17.1974 19.5786 17.9163 18.8284C18.6352 18.0783 19.0391 17.0609 19.0391 16C19.0391 14.9391 18.6352 13.9217 17.9163 13.1716C17.1974 12.4214 16.2224 12 15.2057 12C14.1891 12 13.214 12.4214 12.4952 13.1716C11.7763 13.9217 11.3724 14.9391 11.3724 16Z" fill="white"/>
<path fill-rule="evenodd" clip-rule="evenodd" d="M4.98177 4C4.98177 5.06087 5.38564 6.07828 6.10453 6.82843C6.82342 7.57857 7.79844 8 8.8151 8C9.83177 8 10.8068 7.57857 11.5257 6.82843C12.2446 6.07828 12.6484 5.06087 12.6484 4C12.6484 2.93913 12.2446 1.92172 11.5257 1.17157C10.8068 0.421427 9.83177 -1.22289e-07 8.8151 -1.66428e-07C7.79844 -2.10568e-07 6.82342 0.421427 6.10453 1.17157C5.38564 1.92172 4.98177 2.93913 4.98177 4Z" fill="white"/>
<path fill-rule="evenodd" clip-rule="evenodd" d="M21.85 17.1988L1.15 17.1988C0.845001 17.1988 0.552492 17.0724 0.336826 16.8474C0.121159 16.6223 -6.68167e-08 16.3171 -5.28105e-08 15.9988C-3.88043e-08 15.6806 0.121159 15.3753 0.336826 15.1503C0.552492 14.9253 0.845001 14.7988 1.15 14.7988L21.85 14.7988C22.155 14.7988 22.4475 14.9253 22.6632 15.1503C22.8788 15.3753 23 15.6806 23 15.9988C23 16.3171 22.8788 16.6223 22.6632 16.8474C22.4475 17.0724 22.155 17.1988 21.85 17.1988Z" fill="white"/>
<path fill-rule="evenodd" clip-rule="evenodd" d="M21.85 5.20078L1.15 5.20078C0.845001 5.20078 0.552492 5.07435 0.336826 4.84931C0.121159 4.62426 -6.68167e-08 4.31904 -5.28105e-08 4.00078C-3.88043e-08 3.68252 0.121159 3.3773 0.336826 3.15225C0.552492 2.92721 0.845001 2.80078 1.15 2.80078L21.85 2.80078C22.155 2.80078 22.4475 2.92721 22.6632 3.15225C22.8788 3.3773 23 3.68252 23 4.00078C23 4.31904 22.8788 4.62427 22.6632 4.84931C22.4475 5.07435 22.155 5.20078 21.85 5.20078Z" fill="white"/>
</g>
<defs>
<clipPath id="clip0_1691_1526">
<rect width="20" height="23" fill="white" transform="translate(23) rotate(90)"/>
</clipPath>
</defs>
</svg>
