<svg width="480" height="160" viewBox="0 0 480 160" fill="none" xmlns="http://www.w3.org/2000/svg">
<path d="M480.003 80C480.003 95.8217 475.31 111.288 466.517 124.444C457.725 137.599 445.228 147.853 430.606 153.909C415.984 159.964 399.895 161.549 384.372 158.464C368.849 155.379 354.59 147.761 343.398 136.575C332.206 125.388 324.583 111.135 321.493 95.6179C318.403 80.1005 319.985 64.0157 326.04 49.3974C332.094 34.779 342.348 22.2835 355.506 13.4909C368.664 4.69828 384.134 0.00344021 399.961 1.88922e-06C410.471 -0.00228149 420.879 2.06529 430.59 6.08465C440.301 10.104 449.125 15.9964 456.558 23.4253C463.991 30.8542 469.887 39.6741 473.909 49.3813C477.932 59.0885 480.003 69.4928 480.003 80Z" fill="white"/>
<path d="M41.2264 10.0312C28.7336 16.9543 18.3221 27.094 11.0726 39.3977C3.82317 51.7013 0 65.7205 0 79.9999C0 94.2794 3.82317 108.299 11.0726 120.602C18.3221 132.906 28.7336 143.046 41.2264 149.969L41.2264 10.0312Z" fill="white"/>
<path d="M239.908 0C218.684 0 198.329 8.42855 183.322 23.4315C168.314 38.4344 159.883 58.7827 159.883 80C159.883 101.217 168.314 121.566 183.322 136.569C198.329 151.571 218.684 160 239.908 160L239.908 0Z" fill="white"/>
</svg>
