<svg width="160" height="480" viewBox="0 0 160 480" fill="none" xmlns="http://www.w3.org/2000/svg">
<path d="M80 479.999C64.1782 479.999 48.7118 475.306 35.5562 466.513C22.4007 457.721 12.1468 445.224 6.09133 430.602C0.0358082 415.981 -1.54947 399.891 1.53593 384.368C4.62135 368.846 12.2389 354.586 23.4253 343.394C34.6118 332.202 48.8648 324.579 64.3821 321.489C79.8995 318.399 95.9843 319.982 110.603 326.036C125.221 332.09 137.717 342.344 146.509 355.502C155.302 368.66 159.997 384.13 160 399.957C160.002 410.467 157.935 420.875 153.915 430.586C149.896 440.297 144.004 449.121 136.575 456.554C129.146 463.987 120.326 469.883 110.619 473.906C100.912 477.928 90.5072 479.999 80 479.999Z" fill="black"/>
<path d="M149.969 41.2264C143.046 28.7336 132.906 18.3221 120.602 11.0726C108.299 3.82317 94.2795 -2.43425e-06 80.0001 -3.05843e-06C65.7206 -3.6826e-06 51.7014 3.82316 39.3978 11.0726C27.0941 18.3221 16.9545 28.7336 10.0314 41.2264L149.969 41.2264Z" fill="black"/>
<path d="M160 239.906C160 218.682 151.571 198.327 136.569 183.32C121.566 168.312 101.217 159.881 80 159.881C58.7827 159.881 38.4344 168.312 23.4315 183.32C8.42859 198.327 2.79473e-05 218.682 2.70196e-05 239.906L160 239.906Z" fill="black"/>
</svg>
