<svg width="480" height="160" viewBox="0 0 480 160" fill="none" xmlns="http://www.w3.org/2000/svg">
<path d="M479.999 80C479.999 95.8217 475.306 111.288 466.513 124.444C457.721 137.599 445.224 147.853 430.602 153.909C415.981 159.964 399.891 161.549 384.368 158.464C368.846 155.379 354.586 147.761 343.394 136.575C332.202 125.388 324.579 111.135 321.489 95.6179C318.399 80.1005 319.982 64.0157 326.036 49.3974C332.09 34.779 342.344 22.2835 355.502 13.4909C368.66 4.69828 384.13 0.00344021 399.957 1.88922e-06C410.467 -0.00228149 420.875 2.06529 430.586 6.08465C440.297 10.104 449.121 15.9964 456.554 23.4253C463.987 30.8542 469.883 39.6741 473.906 49.3813C477.928 59.0885 479.999 69.4928 479.999 80Z" fill="black"/>
<path d="M41.2264 10.0313C28.7336 16.9544 18.3221 27.0941 11.0726 39.3977C3.82317 51.7014 0 65.7206 0 80C0 94.2794 3.82317 108.299 11.0726 120.602C18.3221 132.906 28.7336 143.046 41.2264 149.969L41.2264 10.0313Z" fill="black"/>
<path d="M239.908 0C218.684 0 198.329 8.42855 183.322 23.4315C168.314 38.4344 159.883 58.7827 159.883 80C159.883 101.217 168.314 121.566 183.322 136.569C198.329 151.571 218.684 160 239.908 160L239.908 0Z" fill="black"/>
</svg>
