<svg width="235" height="705" viewBox="0 0 235 705" fill="none" xmlns="http://www.w3.org/2000/svg">
<path d="M117.5 704.999C94.2618 704.999 71.5454 698.106 52.2232 685.192C32.901 672.278 17.8407 653.923 8.94663 632.447C0.0525909 610.972 -2.27578 587.34 2.25592 564.541C6.78761 541.742 17.9758 520.799 34.406 504.36C50.8361 487.922 71.7702 476.725 94.5613 472.187C117.352 467.649 140.977 469.973 162.448 478.865C183.918 487.758 202.271 502.819 215.185 522.144C228.099 541.469 234.995 564.191 235 587.437C235.003 602.874 231.967 618.161 226.063 632.424C220.16 646.687 211.505 659.647 200.594 670.564C189.683 681.481 176.729 690.141 162.471 696.049C148.214 701.958 132.932 704.999 117.5 704.999Z" fill="#00C01E"/>
<path d="M220.266 60.5513C210.097 42.2025 195.205 26.9106 177.134 16.2629C159.063 5.61528 138.472 -3.57531e-06 117.499 -4.49207e-06C96.5262 -5.40882e-06 75.9355 5.61527 57.8645 16.2629C39.7935 26.9106 24.9009 42.2025 14.7326 60.5513L220.266 60.5513Z" fill="#00C01E"/>
<path d="M235 352.364C235 321.192 222.621 291.296 200.585 269.254C178.55 247.211 148.663 234.828 117.5 234.828C86.3371 234.828 56.4505 247.211 34.415 269.254C12.3795 291.296 4.20013e-05 321.192 4.06387e-05 352.364L235 352.364Z" fill="#00C01E"/>
</svg>
